<svg xmlns="http://www.w3.org/2000/svg" version="1.1" xmlns:xlink="http://www.w3.org/1999/xlink" xmlns:svgjs="http://svgjs.com/svgjs" width="512" height="512" x="0" y="0" viewBox="0 0 512 512" style="enable-background:new 0 0 512 512" xml:space="preserve" class=""><g><circle cx="256" cy="208.43" r="208.43" fill="#ff4f6b" data-original="#ff4f6b" class=""></circle><path fill="#fb2b3a" d="M422.328 298.783H89.672a27.263 27.263 0 0 0-18.087 6.834C106.519 371.768 175.988 416.86 256 416.86s149.481-45.092 184.415-111.243a27.268 27.268 0 0 0-18.087-6.834z" data-original="#fb2b3a"></path><circle cx="256" cy="208.43" r="177.525" fill="#ffffff" data-original="#ffffff" class=""></circle><path fill="#f9f7f8" d="M103.247 298.783c30.96 52.142 87.838 87.172 152.753 87.172s121.793-35.029 152.753-87.172z" data-original="#f9f7f8" class=""></path><path fill="#ff4f6b" d="M422.329 512H89.671c-15.12 0-27.377-12.257-27.377-27.377V357.066c0-15.12 12.257-27.377 27.377-27.377h332.657c15.12 0 27.377 12.257 27.377 27.377v127.557c.001 15.12-12.256 27.377-27.376 27.377z" data-original="#ff4f6b" class=""></path><path fill="#fb2b3a" d="M422.328 329.689h-30.905c15.12 0 27.377 12.257 27.377 27.377v127.557c0 15.12-12.257 27.377-27.377 27.377h30.905c15.12 0 27.377-12.257 27.377-27.377V357.066c.001-15.12-12.256-27.377-27.377-27.377z" data-original="#fb2b3a"></path><g fill="#fff"><path d="M153.474 465.61h-.044c-8.696.048-21.202.096-29.054.088v-97.434a7.725 7.725 0 0 0-7.726-7.726 7.725 7.725 0 0 0-7.726 7.726v105.072a7.726 7.726 0 0 0 6.421 7.616c.549.094 1.185.203 12.588.203 5.558 0 13.676-.026 25.586-.093a7.726 7.726 0 0 0-.045-15.452zM194.539 360.537a7.725 7.725 0 0 0-7.726 7.726v105.161a7.725 7.725 0 0 0 7.726 7.726 7.725 7.725 0 0 0 7.726-7.726v-105.16a7.725 7.725 0 0 0-7.726-7.727zM395.351 465.218h-36.18V428.57h32.943a7.726 7.726 0 1 0 0-15.452h-32.943V376.47h36.18a7.726 7.726 0 1 0 0-15.452h-43.906a7.725 7.725 0 0 0-7.726 7.726v104.201a7.725 7.725 0 0 0 7.726 7.726h43.906c4.268 0 7.726-3.459 7.726-7.726s-3.458-7.727-7.726-7.727zM312.815 361.125a7.727 7.727 0 0 0-9.768 4.896l-29.362 88.386-30.782-88.677c-1.398-4.032-5.803-6.171-9.832-4.766a7.726 7.726 0 0 0-4.766 9.832l35.973 103.636a10.108 10.108 0 0 0 9.517 6.718h.068c4.296-.029 8.111-2.781 9.511-6.899l34.336-103.359a7.723 7.723 0 0 0-4.895-9.767z" fill="#ffffff" data-original="#ffffff" class=""></path></g><path fill="#ff4f6b" d="M216.716 266.571V150.289c0-11.777 13.401-18.543 22.877-11.551l78.799 58.141c7.776 5.737 7.776 17.364 0 23.102l-78.799 58.141c-9.476 6.992-22.877.226-22.877-11.551z" data-original="#ff4f6b" class=""></path><path fill="#fb2b3a" d="m318.393 196.879-78.799-58.141c-8.038-5.931-18.894-1.962-22.007 6.565 42.497 31.356 42.497 94.897 0 126.252 3.113 8.527 13.97 12.496 22.007 6.565l78.799-58.141c7.776-5.736 7.776-17.362 0-23.1z" data-original="#fb2b3a"></path></g></svg>