<svg xmlns="http://www.w3.org/2000/svg" version="1.1" xmlns:xlink="http://www.w3.org/1999/xlink" xmlns:svgjs="http://svgjs.com/svgjs" width="512" height="512" x="0" y="0" viewBox="0 0 24 24" style="enable-background:new 0 0 512 512" xml:space="preserve" class=""><g><path fill="#fd3c4f" d="M19.16 11.64a9.06 9.06 0 0 0-2.62-3.83 7.88 7.88 0 0 1-2.72-5 1 1 0 0 0-1.72-.52A6.88 6.88 0 0 0 11 8.62c.48 1.94.12 2.68-.06 2.91a.88.88 0 0 1-.76.33c-1.61 0-1.69-3.45-1.69-3.49a1 1 0 0 0-.65-.93 1 1 0 0 0-1.11.28 10.14 10.14 0 0 0-2 4C3.57 17.35 6.49 20 7.8 20.86A7 7 0 0 0 11.69 22a7.86 7.86 0 0 0 5.44-2.18 8 8 0 0 0 2.03-8.18z" data-name="Layer 2" data-original="#fd3c4f" class=""></path></g></svg>