<svg xmlns="http://www.w3.org/2000/svg" version="1.1" xmlns:xlink="http://www.w3.org/1999/xlink" xmlns:svgjs="http://svgjs.com/svgjs" width="512" height="512" x="0" y="0" viewBox="0 0 32 32" style="enable-background:new 0 0 512 512" xml:space="preserve" class=""><g><g fill="#314150"><path d="M4.94 24.488a1.002 1.002 0 0 0-.073 1.413A15.01 15.01 0 0 0 16 30.851a14.99 14.99 0 0 0 11.06-4.876 1 1 0 0 0-1.478-1.348 12.981 12.981 0 0 1-19.227-.066 1.003 1.003 0 0 0-1.413-.073zM2.62 20.962a1.001 1.001 0 0 0 .956-1.294A12.928 12.928 0 0 1 3 15.852c0-6.1 4.327-11.45 10.289-12.723.54-.115.884-.646.769-1.187s-.651-.892-1.187-.769C5.992 2.64 1 8.814 1 15.851c0 1.49.224 2.973.664 4.404.133.43.528.706.956.706zM19.3 1.215a1 1 0 1 0-.439 1.951c5.875 1.325 10.14 6.66 10.14 12.685 0 1.356-.206 2.688-.612 3.954a1 1 0 0 0 1.904.612c.47-1.465.708-3.001.708-4.565 0-7.062-4.812-13.081-11.7-14.636z" fill="#fb2b3a" data-original="#314150" class=""></path></g></g></svg>